<svg width="20" height="21" viewBox="0 0 20 21" fill="none" xmlns="http://www.w3.org/2000/svg">
<path d="M19.6875 10.5C19.6875 15.8516 15.3516 20.1875 10 20.1875C4.64844 20.1875 0.3125 15.8516 0.3125 10.5C0.3125 5.14844 4.64844 0.8125 10 0.8125C15.3516 0.8125 19.6875 5.14844 19.6875 10.5ZM8.28125 5.96875V10.5H5.50781C5.07812 10.5 4.88281 11.0078 5.15625 11.3203L9.64844 15.7734C9.84375 15.9688 10.1172 15.9688 10.3125 15.7734L14.8047 11.3203C15.0781 11.0078 14.8828 10.5 14.4531 10.5H11.7188V5.96875C11.7188 5.73438 11.4844 5.5 11.25 5.5H8.75C8.47656 5.5 8.28125 5.73438 8.28125 5.96875Z" fill="#823D97"/>
</svg>
