<svg width="23" height="15" viewBox="0 0 23 15" fill="none" xmlns="http://www.w3.org/2000/svg">
<path d="M21.5625 0C22.0703 0 22.5 0.429688 22.5 0.9375V13.125C22.5 14.1797 21.6406 15 20.625 15H2.1875C0.976562 15 0 14.0234 0 12.8125V2.1875C0 1.67969 0.390625 1.25 0.9375 1.25H2.5V0.9375C2.5 0.429688 2.89062 0 3.4375 0H21.5625ZM2.1875 13.125C2.34375 13.125 2.5 13.0078 2.5 12.8125V3.125H1.875V12.8125C1.875 13.0078 1.99219 13.125 2.1875 13.125ZM11.4062 12.5C11.6406 12.5 11.875 12.3047 11.875 12.0312V11.7188C11.875 11.4844 11.6406 11.25 11.4062 11.25H5.46875C5.19531 11.25 5 11.4844 5 11.7188V12.0312C5 12.3047 5.19531 12.5 5.46875 12.5H11.4062ZM19.5312 12.5C19.7656 12.5 20 12.3047 20 12.0312V11.7188C20 11.4844 19.7656 11.25 19.5312 11.25H13.5938C13.3203 11.25 13.125 11.4844 13.125 11.7188V12.0312C13.125 12.3047 13.3203 12.5 13.5938 12.5H19.5312ZM11.4062 8.75C11.6406 8.75 11.875 8.55469 11.875 8.28125V7.96875C11.875 7.73438 11.6406 7.5 11.4062 7.5H5.46875C5.19531 7.5 5 7.73438 5 7.96875V8.28125C5 8.55469 5.19531 8.75 5.46875 8.75H11.4062ZM19.5312 8.75C19.7656 8.75 20 8.55469 20 8.28125V7.96875C20 7.73438 19.7656 7.5 19.5312 7.5H13.5938C13.3203 7.5 13.125 7.73438 13.125 7.96875V8.28125C13.125 8.55469 13.3203 8.75 13.5938 8.75H19.5312ZM19.5312 5C19.7656 5 20 4.80469 20 4.53125V2.96875C20 2.73438 19.7656 2.5 19.5312 2.5H5.46875C5.19531 2.5 5 2.73438 5 2.96875V4.53125C5 4.80469 5.19531 5 5.46875 5H19.5312Z" fill="#823D97"/>
</svg>
