<svg width="27" height="27" viewBox="0 0 27 27" fill="none" xmlns="http://www.w3.org/2000/svg">
<path d="M25.6445 22.7461C26.1016 23.2539 26.1016 24.0156 25.5938 24.4727L24.1719 25.8945C23.7148 26.4023 22.9531 26.4023 22.4453 25.8945L17.418 20.8672C17.1641 20.6133 17.0625 20.3086 17.0625 20.0039V19.1406C15.2344 20.5625 13 21.375 10.5625 21.375C4.72266 21.375 0 16.6523 0 10.8125C0 5.02344 4.72266 0.25 10.5625 0.25C16.3516 0.25 21.125 5.02344 21.125 10.8125C21.125 13.3008 20.2617 15.5352 18.8906 17.3125H19.7031C20.0078 17.3125 20.3125 17.4648 20.5664 17.668L25.6445 22.7461ZM10.5625 17.3125C14.1172 17.3125 17.0625 14.418 17.0625 10.8125C17.0625 7.25781 14.1172 4.3125 10.5625 4.3125C6.95703 4.3125 4.0625 7.25781 4.0625 10.8125C4.0625 14.418 6.95703 17.3125 10.5625 17.3125Z" fill="#823D97"/>
</svg>
